<?xml version="1.0" encoding="utf-8"?>
<!-- Generator: Adobe Illustrator 24.0.1, SVG Export Plug-In . SVG Version: 6.00 Build 0)  -->
<svg version="1.1" xmlns="http://www.w3.org/2000/svg" xmlns:xlink="http://www.w3.org/1999/xlink" x="0px" y="0px"
	 viewBox="0 0 217.1 130.7" style="enable-background:new 0 0 217.1 130.7;" xml:space="preserve"  width="50px" height="50px">
<style type="text/css">
	.st0{display:none;}
	.st1{display:inline;}
	.st2{fill:#F9F1E1;}
	.st3{fill:#EAF4FE;}
	.st4{fill:none;stroke:#0561FC;stroke-width:6.8376;stroke-miterlimit:10;}
	.st5{fill:#0561FC;}
	.st6{fill:#C5E1F9;}
	.st7{fill:#7EB3FF;}
	.st8{fill:#B5D5EA;}
	.st9{fill:#E1EBF4;}
	.st10{fill:#9AC7F7;}
	.st11{fill:none;stroke:#0561FC;stroke-width:6.8376;}
	.st12{fill:none;stroke:#7EB3FF;stroke-width:6.8376;}
	.st13{fill:none;stroke:#0561FC;stroke-width:6.8376;stroke-linecap:round;}
	.st14{fill:none;stroke:#0561FC;stroke-width:7.1001;}
	.st15{fill:#B6D9EF;}
	.st16{fill:none;stroke:#9AC7F7;stroke-width:6.8376;}
	.st17{fill:none;stroke:#0561FC;stroke-width:6.8376;stroke-linejoin:bevel;}
	.st18{fill:none;stroke:#0561FC;stroke-width:6.8376;stroke-linecap:round;stroke-linejoin:round;}
	.st19{fill:none;stroke:#0561FC;stroke-width:5.0237;}
	.st20{fill:none;stroke:#0450CF;stroke-width:6.8376;}
	.st21{fill:none;stroke:#C5E1F9;stroke-width:6.8376;}
	.st22{fill:#FFBF0D;}
	.st23{fill:#B2D2EA;}
	.st24{fill:none;stroke:#0561FC;stroke-width:6.9311;}
	.st25{fill:none;stroke:#0561FC;stroke-width:6.8376;stroke-linecap:round;stroke-miterlimit:10;}
	.st26{fill:#FFFFFF;}
	.st27{fill:#FFFFFF;stroke:#0561FC;stroke-width:6.8376;}
</style>
<g id="Layer_2">
	<g class="st0">
		<g class="st1">
			<rect x="-2.8" y="-38.7" class="st2" width="218.8" height="218.8"/>
		</g>
	</g>
</g>
<g id="Layer_3">
</g>
<g id="Layer_4">
	<g>
		<path class="st6" d="M199.4,94c0.2-1.6,0.3-3.1,0.3-4.7c0-22.1-17.9-40.1-40.1-40.1c-3.8,0-7.4,0.6-10.8,1.5
			C144.8,22.1,120.3,0,90.5,0C58.1,0,31.8,26.3,31.8,58.8c0,0.1,0,0.3,0,0.4C13.9,61.2,0,76.4,0,94.8c0,19.8,16.1,35.9,35.9,35.9
			h60.4h17.7h15.8h35.2h32.3c0,0,0-0.1,0-0.1c0.5,0,1,0.1,1.5,0.1c10.1,0,18.3-8.2,18.3-18.3C217.1,102.4,209.2,94.3,199.4,94z"/>
		<path class="st11" d="M199.1,104.3c4.4,0.1,7.8,3.7,7.8,8.1"/>
		<path class="st11" d="M151.5,60.6c2.7-0.8,5.4-1.1,8.1-1.1c16.4,0,29.8,13.4,29.8,29.8c0,1.1-0.1,2.2-0.2,3.5"/>
		<path class="st11" d="M42,58.7C42,32,63.8,10.3,90.5,10.3"/>
		<path class="st11" d="M10.3,94.8c0-13,9.7-24,22.7-25.4"/>
	</g>
</g>
</svg>
